<?xml version="1.0" encoding="UTF-8"?>
<!--Generator: Apple Native CoreSVG 341-->
<!DOCTYPE svg
PUBLIC "-//W3C//DTD SVG 1.1//EN"
       "http://www.w3.org/Graphics/SVG/1.1/DTD/svg11.dtd">
<svg version="1.1" xmlns="http://www.w3.org/2000/svg" xmlns:xlink="http://www.w3.org/1999/xlink" viewBox="0 0 3300 2200">
 <!--glyph: "", point size: 100.0, font version: "21.1d1e1", template writer version: "138.0.0"-->
 <style>.defaults {-sfsymbols-variable-value-mode:color;-sfsymbols-draw-reverses-motion-groups:true}

.monochrome-0 {-sfsymbols-motion-group:0;-sfsymbols-layer-tags:-3a0a83a5ed9c8ac3}

.multicolor-0:tintColor {-sfsymbols-motion-group:0;-sfsymbols-layer-tags:-3a0a83a5ed9c8ac3}

.hierarchical-0:primary {-sfsymbols-motion-group:0;-sfsymbols-layer-tags:-3a0a83a5ed9c8ac3}

.SFSymbolsPreviewWireframe {fill:none;opacity:1.0;stroke:black;stroke-width:0.5}
</style>
 <g id="Notes">
  <rect height="2200" id="artboard" style="fill:white;opacity:1" width="3300" x="0" y="0"/>
  <line style="fill:none;stroke:black;opacity:1;stroke-width:0.5;" x1="263" x2="3036" y1="292" y2="292"/>
  <text style="stroke:none;fill:black;font-family:sans-serif;font-size:13;font-weight:bold;" transform="matrix(1 0 0 1 263 322)">Weight/Scale Variations</text>
  <text style="stroke:none;fill:black;font-family:sans-serif;font-size:13;text-anchor:middle;" transform="matrix(1 0 0 1 559.711 322)">Ultralight</text>
  <text style="stroke:none;fill:black;font-family:sans-serif;font-size:13;text-anchor:middle;" transform="matrix(1 0 0 1 856.422 322)">Thin</text>
  <text style="stroke:none;fill:black;font-family:sans-serif;font-size:13;text-anchor:middle;" transform="matrix(1 0 0 1 1153.13 322)">Light</text>
  <text style="stroke:none;fill:black;font-family:sans-serif;font-size:13;text-anchor:middle;" transform="matrix(1 0 0 1 1449.84 322)">Regular</text>
  <text style="stroke:none;fill:black;font-family:sans-serif;font-size:13;text-anchor:middle;" transform="matrix(1 0 0 1 1746.56 322)">Medium</text>
  <text style="stroke:none;fill:black;font-family:sans-serif;font-size:13;text-anchor:middle;" transform="matrix(1 0 0 1 2043.27 322)">Semibold</text>
  <text style="stroke:none;fill:black;font-family:sans-serif;font-size:13;text-anchor:middle;" transform="matrix(1 0 0 1 2339.98 322)">Bold</text>
  <text style="stroke:none;fill:black;font-family:sans-serif;font-size:13;text-anchor:middle;" transform="matrix(1 0 0 1 2636.69 322)">Heavy</text>
  <text style="stroke:none;fill:black;font-family:sans-serif;font-size:13;text-anchor:middle;" transform="matrix(1 0 0 1 2933.4 322)">Black</text>
  <line style="fill:none;stroke:black;opacity:1;stroke-width:0.5;" x1="263" x2="3036" y1="1903" y2="1903"/>
  <g transform="matrix(0.2 0 0 0.2 263 1933)">
   <path d="m46.2402 4.15039c21.7773 0 39.4531-17.627 39.4531-39.4043s-17.6758-39.4043-39.4531-39.4043c-21.7285 0-39.4043 17.627-39.4043 39.4043s17.6758 39.4043 39.4043 39.4043Zm0-7.42188c-17.6758 0-31.9336-14.3066-31.9336-31.9824s14.2578-31.9824 31.9336-31.9824 31.9824 14.3066 31.9824 31.9824-14.3066 31.9824-31.9824 31.9824Zm3.61328-17.7734v-28.4668c0-2.24609-1.46484-3.75977-3.71094-3.75977-2.14844 0-3.61328 1.51367-3.61328 3.75977v28.4668c0 2.19727 1.46484 3.71094 3.61328 3.71094 2.24609 0 3.71094-1.51367 3.71094-3.71094Zm-17.8223-10.5957h28.418c2.19727 0 3.71094-1.46484 3.71094-3.61328 0-2.19727-1.51367-3.71094-3.71094-3.71094h-28.418c-2.24609 0-3.75977 1.51367-3.75977 3.71094 0 2.14844 1.51367 3.61328 3.75977 3.61328Z"/>
  </g>
  <g transform="matrix(0.2 0 0 0.2 281.506 1933)">
   <path d="m58.5449 14.5508c27.4902 0 49.8047-22.3145 49.8047-49.8047s-22.3145-49.8047-49.8047-49.8047-49.8047 22.3145-49.8047 49.8047 22.3145 49.8047 49.8047 49.8047Zm0-8.30078c-22.9492 0-41.5039-18.5547-41.5039-41.5039s18.5547-41.5039 41.5039-41.5039 41.5039 18.5547 41.5039 41.5039-18.5547 41.5039-41.5039 41.5039Zm4.05273-23.0957v-36.9141c0-2.49023-1.70898-4.19922-4.15039-4.19922-2.39258 0-4.05273 1.70898-4.05273 4.19922v36.9141c0 2.44141 1.66016 4.15039 4.05273 4.15039 2.44141 0 4.15039-1.66016 4.15039-4.15039Zm-22.5586-14.4043h36.9629c2.44141 0 4.15039-1.61133 4.15039-4.00391 0-2.44141-1.70898-4.15039-4.15039-4.15039h-36.9629c-2.49023 0-4.15039 1.70898-4.15039 4.15039 0 2.39258 1.66016 4.00391 4.15039 4.00391Z"/>
  </g>
  <g transform="matrix(0.2 0 0 0.2 304.924 1933)">
   <path d="m74.8535 28.3203c35.1074 0 63.623-28.4668 63.623-63.5742s-28.5156-63.623-63.623-63.623-63.5742 28.5156-63.5742 63.623 28.4668 63.5742 63.5742 63.5742Zm0-9.08203c-30.127 0-54.4922-24.3652-54.4922-54.4922s24.3652-54.4922 54.4922-54.4922 54.4922 24.3652 54.4922 54.4922-24.3652 54.4922-54.4922 54.4922Zm4.44336-30.3223v-48.4863c0-2.73438-1.85547-4.63867-4.54102-4.63867-2.58789 0-4.44336 1.9043-4.44336 4.63867v48.4863c0 2.68555 1.85547 4.58984 4.44336 4.58984 2.68555 0 4.54102-1.85547 4.54102-4.58984Zm-28.7109-19.7754h48.4863c2.68555 0 4.58984-1.80664 4.58984-4.39453 0-2.73438-1.85547-4.58984-4.58984-4.58984h-48.4863c-2.73438 0-4.58984 1.85547-4.58984 4.58984 0 2.58789 1.85547 4.39453 4.58984 4.39453Z"/>
  </g>
  <text style="stroke:none;fill:black;font-family:sans-serif;font-size:13;font-weight:bold;" transform="matrix(1 0 0 1 263 1953)">Design Variations</text>
  <text style="stroke:none;fill:black;font-family:sans-serif;font-size:13;" transform="matrix(1 0 0 1 263 1971)">Symbols are supported in up to nine weights and three scales.</text>
  <text style="stroke:none;fill:black;font-family:sans-serif;font-size:13;" transform="matrix(1 0 0 1 263 1989)">For optimal layout with text and other symbols, vertically align</text>
  <text style="stroke:none;fill:black;font-family:sans-serif;font-size:13;" transform="matrix(1 0 0 1 263 2007)">symbols with the adjacent text.</text>
  <line style="fill:none;stroke:#00AEEF;stroke-width:0.5;opacity:1.0;" x1="776" x2="776" y1="1919" y2="1933"/>
  <g transform="matrix(0.2 0 0 0.2 776 1933)">
   <path d="m16.5527 0.78125c2.58789 0 3.85742-0.976562 4.78516-3.71094l20.5566-57.5195h0.244141l20.6055 57.5195c0.927734 2.73438 2.19727 3.71094 4.73633 3.71094 2.58789 0 4.24805-1.5625 4.24805-4.00391 0-0.830078-0.146484-1.61133-0.537109-2.63672l-22.9004-60.9863c-1.12305-2.97852-3.125-4.49219-6.25-4.49219-3.02734 0-5.07812 1.46484-6.15234 4.44336l-22.9004 61.084c-0.390625 1.02539-0.537109 1.80664-0.537109 2.63672 0 2.44141 1.5625 3.95508 4.10156 3.95508Zm10.2051-20.9473h30.6641c2.00195 0 3.66211-1.66016 3.66211-3.66211 0-2.05078-1.66016-3.66211-3.66211-3.66211h-30.6641c-2.00195 0-3.66211 1.61133-3.66211 3.66211 0 2.00195 1.66016 3.66211 3.66211 3.66211Z"/>
  </g>
  <line style="fill:none;stroke:#00AEEF;stroke-width:0.5;opacity:1.0;" x1="792.836" x2="792.836" y1="1919" y2="1933"/>
  <text style="stroke:none;fill:black;font-family:sans-serif;font-size:13;font-weight:bold;" transform="matrix(1 0 0 1 776 1953)">Margins</text>
  <text style="stroke:none;fill:black;font-family:sans-serif;font-size:13;" transform="matrix(1 0 0 1 776 1971)">Leading and trailing margins on the left and right side of each symbol</text>
  <text style="stroke:none;fill:black;font-family:sans-serif;font-size:13;" transform="matrix(1 0 0 1 776 1989)">can be adjusted by modifying the x-location of the margin guidelines.</text>
  <text style="stroke:none;fill:black;font-family:sans-serif;font-size:13;" transform="matrix(1 0 0 1 776 2007)">Modifications are automatically applied proportionally to all</text>
  <text style="stroke:none;fill:black;font-family:sans-serif;font-size:13;" transform="matrix(1 0 0 1 776 2025)">scales and weights.</text>
  <g transform="matrix(0.2 0 0 0.2 1289 1933)">
   <path d="m14.209 13.1348 7.86133 7.86133c4.29688 4.39453 9.32617 4.10156 13.8672-1.02539l60.6934-68.2129-4.88281-4.88281-60.2539 67.6758c-1.80664 1.95312-3.4668 2.44141-5.81055 0.0976562l-5.17578-5.12695c-2.29492-2.29492-1.80664-3.95508 0.195312-5.81055l67.4805-62.1582-4.88281-4.83398-68.0664 62.5977c-4.98047 4.58984-5.32227 9.47266-1.02539 13.8184Zm44.873-97.4609c-2.05078 2.00195-2.24609 4.88281-1.07422 6.78711 1.12305 1.80664 3.4668 3.02734 6.5918 2.24609 5.85938-1.66016 12.5977-2.39258 18.8965 0.927734l-2.68555 7.12891c-1.61133 4.00391-0.732422 6.88477 1.70898 9.42383l10.2539 10.3027c2.34375 2.39258 4.54102 2.44141 7.08008 1.95312l4.44336-0.732422 2.58789 2.53906-0.195312 2.24609c-0.0976562 2.29492 0.537109 4.29688 2.7832 6.49414l3.36914 3.32031c2.29492 2.29492 5.51758 2.49023 7.8125 0.195312l12.9883-13.0371c2.29492-2.34375 2.14844-5.37109-0.195312-7.66602l-3.41797-3.41797c-2.19727-2.19727-4.05273-3.02734-6.34766-2.88086l-2.34375 0.244141-2.44141-2.44141 1.02539-4.6875c0.634766-2.73438-0.244141-4.98047-2.88086-7.61719l-11.2793-11.1816c-12.9395-12.8418-35.5957-11.0352-46.6797-0.146484Zm7.08008 2.05078c8.78906-6.39648 25.9766-5.66406 33.6914 1.95312l12.3047 12.207c1.02539 1.02539 1.2207 1.80664 0.927734 3.32031l-1.46484 6.64062 6.73828 6.68945 4.39453-0.244141c1.12305-0.0488281 1.51367 0.0488281 2.34375 0.878906l2.53906 2.49023-10.8398 10.8398-2.49023-2.49023c-0.830078-0.878906-0.976562-1.2207-0.927734-2.39258l0.292969-4.3457-6.68945-6.73828-6.83594 1.17188c-1.41602 0.292969-2.05078 0.195312-3.17383-0.878906l-8.93555-8.88672c-1.07422-1.02539-1.17188-1.70898-0.488281-3.36914l4.58984-11.4746c-6.10352-6.34766-17.041-7.51953-25.5859-4.58984-0.683594 0.244141-0.927734-0.390625-0.390625-0.78125Z"/>
  </g>
  <text style="stroke:none;fill:black;font-family:sans-serif;font-size:13;font-weight:bold;" transform="matrix(1 0 0 1 1289 1953)">Exporting</text>
  <text style="stroke:none;fill:black;font-family:sans-serif;font-size:13;" transform="matrix(1 0 0 1 1289 1971)">Symbols should be outlined when exporting to ensure the</text>
  <text style="stroke:none;fill:black;font-family:sans-serif;font-size:13;" transform="matrix(1 0 0 1 1289 1989)">design is preserved when submitting to Xcode.</text>
  <text id="template-version" style="stroke:none;fill:black;font-family:sans-serif;font-size:13;text-anchor:end;" transform="matrix(1 0 0 1 3036 1933)">Template v.7.0</text>
  <text style="stroke:none;fill:black;font-family:sans-serif;font-size:13;text-anchor:end;" transform="matrix(1 0 0 1 3036 1951)">Requires Xcode 26 or greater</text>
  <text id="descriptive-name" style="stroke:none;fill:black;font-family:sans-serif;font-size:13;text-anchor:end;" transform="matrix(1 0 0 1 3036 1969)">Generated from satellite</text>
  <text style="stroke:none;fill:black;font-family:sans-serif;font-size:13;text-anchor:end;" transform="matrix(1 0 0 1 3036 1987)">Typeset at 100.0 points</text>
  <text style="stroke:none;fill:black;font-family:sans-serif;font-size:13;" transform="matrix(1 0 0 1 263 726)">Small</text>
  <text style="stroke:none;fill:black;font-family:sans-serif;font-size:13;" transform="matrix(1 0 0 1 263 1156)">Medium</text>
  <text style="stroke:none;fill:black;font-family:sans-serif;font-size:13;" transform="matrix(1 0 0 1 263 1586)">Large</text>
 </g>
 <g id="Guides">
  <g id="H-reference" style="fill:#27AAE1;stroke:none;" transform="matrix(1 0 0 1 339 696)">
   <path d="M0.993654 0L3.63775 0L29.3281-67.1323L30.0303-67.1323L30.0303-70.459L28.1226-70.459ZM11.6885-24.4799L46.9815-24.4799L46.2315-26.7285L12.4385-26.7285ZM55.1196 0L57.7637 0L30.6382-70.459L29.4326-70.459L29.4326-67.1323Z"/>
  </g>
  <line id="Baseline-S" style="fill:none;stroke:#27AAE1;opacity:1;stroke-width:0.5;" x1="263" x2="3036" y1="696" y2="696"/>
  <line id="Capline-S" style="fill:none;stroke:#27AAE1;opacity:1;stroke-width:0.5;" x1="263" x2="3036" y1="625.541" y2="625.541"/>
  <g id="H-reference" style="fill:#27AAE1;stroke:none;" transform="matrix(1 0 0 1 339 1126)">
   <path d="M0.993654 0L3.63775 0L29.3281-67.1323L30.0303-67.1323L30.0303-70.459L28.1226-70.459ZM11.6885-24.4799L46.9815-24.4799L46.2315-26.7285L12.4385-26.7285ZM55.1196 0L57.7637 0L30.6382-70.459L29.4326-70.459L29.4326-67.1323Z"/>
  </g>
  <line id="Baseline-M" style="fill:none;stroke:#27AAE1;opacity:1;stroke-width:0.5;" x1="263" x2="3036" y1="1126" y2="1126"/>
  <line id="Capline-M" style="fill:none;stroke:#27AAE1;opacity:1;stroke-width:0.5;" x1="263" x2="3036" y1="1055.54" y2="1055.54"/>
  <g id="H-reference" style="fill:#27AAE1;stroke:none;" transform="matrix(1 0 0 1 339 1556)">
   <path d="M0.993654 0L3.63775 0L29.3281-67.1323L30.0303-67.1323L30.0303-70.459L28.1226-70.459ZM11.6885-24.4799L46.9815-24.4799L46.2315-26.7285L12.4385-26.7285ZM55.1196 0L57.7637 0L30.6382-70.459L29.4326-70.459L29.4326-67.1323Z"/>
  </g>
  <line id="Baseline-L" style="fill:none;stroke:#27AAE1;opacity:1;stroke-width:0.5;" x1="263" x2="3036" y1="1556" y2="1556"/>
  <line id="Capline-L" style="fill:none;stroke:#27AAE1;opacity:1;stroke-width:0.5;" x1="263" x2="3036" y1="1485.54" y2="1485.54"/>
  <line id="right-margin-Black-S" style="fill:none;stroke:#00AEEF;stroke-width:0.5;opacity:1.0;" x1="2981.15" x2="2981.15" y1="600.785" y2="720.121"/>
  <line id="left-margin-Black-S" style="fill:none;stroke:#00AEEF;stroke-width:0.5;opacity:1.0;" x1="2885.65" x2="2885.65" y1="600.785" y2="720.121"/>
  <line id="right-margin-Regular-S" style="fill:none;stroke:#00AEEF;stroke-width:0.5;opacity:1.0;" x1="1495.79" x2="1495.79" y1="600.785" y2="720.121"/>
  <line id="left-margin-Regular-S" style="fill:none;stroke:#00AEEF;stroke-width:0.5;opacity:1.0;" x1="1403.9" x2="1403.9" y1="600.785" y2="720.121"/>
  <line id="right-margin-Ultralight-S" style="fill:none;stroke:#00AEEF;stroke-width:0.5;opacity:1.0;" x1="605.386" x2="605.386" y1="600.785" y2="720.121"/>
  <line id="left-margin-Ultralight-S" style="fill:none;stroke:#00AEEF;stroke-width:0.5;opacity:1.0;" x1="514.036" x2="514.036" y1="600.785" y2="720.121"/>
 </g>
 <g id="Symbols">
  <g id="Black-S" transform="matrix(1 0 0 1 2885.65 696)">
   <path class="monochrome-0 multicolor-0:tintColor hierarchical-0:primary SFSymbolsPreviewWireframe" d="M62.25-70.64C61.11-69.794 51.09-59.581 50.99-59.151C50.72-58.112 50.69-58.156 58.14-50.705C62.82-46.044 65.37-43.594 65.64-43.535C66.53-43.312 66.87-43.609 72.69-49.443C75.79-52.56 78.39-55.276 78.45-55.455C78.51-55.648 78.51-56.048 78.45-56.345C78.36-56.82 77.42-57.815 71.5-63.767C67.73-67.552 64.46-70.744 64.24-70.862C63.6-71.204 62.91-71.115 62.25-70.64ZM30.93-59.656C30.25-59.151 22.86-51.714 22.5-51.18C22.2-50.734 22.19-49.963 22.47-49.428C22.59-49.206 23.41-48.315 24.31-47.439C26.12-45.673 26.57-45.465 27.49-45.895C27.77-46.029 29.91-48.063 32.24-50.408C36.78-54.965 36.9-55.128 36.51-56.152C36.32-56.657 33.52-59.566 32.92-59.878C32.28-60.22 31.59-60.131 30.93-59.656ZM34.33-48.018L27.16-40.863L27.16-40.121L27.16-39.379L38.18-28.365C44.23-22.309 49.38-17.277 49.61-17.173C50.59-16.772 50.54-16.742 58.11-24.312L65.24-31.437L65.24-32.18L65.24-32.922L54.1-44.055L42.97-55.187L42.23-55.187L41.49-55.187L34.33-48.018ZM22.63-31.022C21.94-30.502 11.87-20.394 11.52-19.859C11.22-19.414 11.21-18.642 11.49-18.108C11.61-17.885 14.8-14.62 18.58-10.849C24.61-4.838 25.53-3.991 26.02-3.902C26.35-3.843 26.75-3.858 26.98-3.962C27.53-4.184 38.68-15.377 38.81-15.822C39.1-16.757 39.04-16.816 31.63-24.223C24.71-31.141 24.52-31.319 23.88-31.393C23.33-31.452 23.14-31.393 22.63-31.022ZM70.62-26.747C66.84-26.064 63.56-24.342 60.78-21.566C57.96-18.746 56.27-15.48 55.59-11.606C55.31-9.958 55.31-6.901 55.59-5.268C56.02-2.819 57.22 0.343 57.9 0.818C58.78 1.442 58.69 1.516 65-4.748C68.21-7.955 70.79-10.448 70.73-10.285C70.24-9.023 70.18-8.741 70.25-8.014C70.39-6.693 71.31-5.461 72.57-4.926C72.93-4.763 73.45-4.719 74.16-4.748C76.19-4.837 77.51-6.158 77.6-8.192C77.63-8.905 77.59-9.424 77.42-9.78C76.89-11.042 75.66-11.962 74.34-12.096C73.61-12.17 73.33-12.111 72.06-11.621C71.9-11.562 74.4-14.144 77.6-17.351C83.87-23.659 83.79-23.57 83.17-24.446C82.69-25.129 79.53-26.331 77.08-26.762C75.51-27.044 72.18-27.029 70.62-26.747Z"/>
  </g>
  <g id="Regular-S" transform="matrix(1 0 0 1 1403.9 696)">
   <path class="monochrome-0 multicolor-0:tintColor hierarchical-0:primary SFSymbolsPreviewWireframe" d="M60.22-68.764C59.14-67.962 49.64-58.287 49.55-57.88C49.29-56.895 49.26-56.937 56.32-49.878C60.75-45.462 63.17-43.142 63.42-43.086C64.27-42.875 64.59-43.156 70.1-48.683C73.04-51.636 75.5-54.209 75.56-54.378C75.62-54.561 75.62-54.941 75.56-55.222C75.48-55.672 74.59-56.614 68.98-62.253C65.41-65.839 62.31-68.862 62.1-68.975C61.5-69.298 60.84-69.214 60.22-68.764ZM30.55-58.358C29.9-57.88 22.9-50.834 22.56-50.328C22.28-49.906 22.26-49.175 22.53-48.669C22.64-48.458 23.42-47.614 24.27-46.784C25.99-45.111 26.41-44.914 27.28-45.322C27.55-45.448 29.58-47.375 31.78-49.597C36.09-53.914 36.2-54.069 35.83-55.039C35.65-55.517 32.99-58.273 32.43-58.569C31.83-58.892 31.17-58.808 30.55-58.358ZM33.77-47.333L26.98-40.555L26.98-39.851L26.98-39.148L37.41-28.714C43.15-22.976 48.03-18.209 48.24-18.111C49.17-17.731 49.12-17.703 56.3-24.875L63.05-31.625L63.05-32.328L63.05-33.031L52.5-43.578L41.95-54.125L41.25-54.125L40.55-54.125L33.77-47.333ZM22.69-31.231C22.02-30.739 12.49-21.162 12.15-20.656C11.87-20.234 11.86-19.503 12.12-18.997C12.24-18.786 15.26-15.692 18.85-12.12C24.56-6.425 25.43-5.623 25.89-5.539C26.2-5.483 26.58-5.497 26.81-5.595C27.33-5.806 37.89-16.409 38.01-16.831C38.28-17.717 38.22-17.773 31.21-24.791C24.65-31.344 24.47-31.512 23.87-31.583C23.35-31.639 23.16-31.583 22.69-31.231ZM68.15-27.181C64.56-26.534 61.46-24.903 58.83-22.273C56.15-19.602 54.55-16.508 53.9-12.837C53.64-11.277 53.64-8.38 53.9-6.833C54.31-4.512 55.45-1.517 56.1-1.067C56.93-0.477 56.84-0.406 62.82-6.341C65.86-9.378 68.3-11.741 68.25-11.586C67.78-10.391 67.73-10.123 67.8-9.434C67.92-8.183 68.8-7.016 69.99-6.509C70.33-6.355 70.82-6.312 71.5-6.341C73.42-6.425 74.67-7.677 74.76-9.603C74.79-10.278 74.75-10.77 74.59-11.108C74.08-12.303 72.92-13.175 71.67-13.302C70.98-13.372 70.71-13.316 69.51-12.852C69.36-12.795 71.72-15.242 74.76-18.28C80.69-24.256 80.62-24.172 80.03-25.002C79.58-25.648 76.59-26.787 74.27-27.195C72.78-27.462 69.63-27.448 68.15-27.181Z"/>
  </g>
  <g id="Ultralight-S" transform="matrix(1 0 0 1 514.036 696)">
   <path class="monochrome-0 multicolor-0:tintColor hierarchical-0:primary SFSymbolsPreviewWireframe" d="M60.083-68.764C59-67.962 49.508-58.287 49.409-57.88C49.156-56.895 49.128-56.937 56.187-49.878C60.617-45.462 63.036-43.142 63.289-43.086C64.133-42.875 64.456-43.156 69.969-48.683C72.908-51.636 75.369-54.209 75.425-54.378C75.481-54.561 75.481-54.941 75.425-55.222C75.341-55.672 74.455-56.614 68.844-62.253C65.272-65.839 62.178-68.862 61.967-68.975C61.362-69.298 60.701-69.214 60.083-68.764ZM30.411-58.358C29.764-57.88 22.761-50.834 22.423-50.328C22.142-49.906 22.128-49.175 22.395-48.669C22.508-48.458 23.281-47.614 24.139-46.784C25.855-45.111 26.276-44.914 27.148-45.322C27.415-45.448 29.44-47.375 31.648-49.597C35.951-53.914 36.064-54.069 35.698-55.039C35.515-55.517 32.858-58.273 32.295-58.569C31.69-58.892 31.03-58.808 30.411-58.358ZM33.631-47.333L26.839-40.555L26.839-39.851L26.839-39.148L37.273-28.714C43.011-22.976 47.891-18.209 48.101-18.111C49.03-17.731 48.987-17.703 56.159-24.875L62.909-31.625L62.909-32.328L62.909-33.031L52.362-43.578L41.816-54.125L41.112-54.125L40.409-54.125L33.631-47.333ZM22.55-31.231C21.889-30.739 12.355-21.162 12.017-20.656C11.736-20.234 11.722-19.503 11.989-18.997C12.101-18.786 15.125-15.692 18.711-12.12C24.42-6.425 25.292-5.623 25.756-5.539C26.065-5.483 26.445-5.497 26.67-5.595C27.19-5.806 37.751-16.409 37.878-16.831C38.145-17.717 38.089-17.773 31.072-24.791C24.519-31.344 24.336-31.512 23.731-31.583C23.211-31.639 23.028-31.583 22.55-31.231ZM68.014-27.181C64.428-26.534 61.32-24.903 58.691-22.273C56.019-19.602 54.416-16.508 53.769-12.837C53.501-11.277 53.501-8.38 53.769-6.833C54.176-4.512 55.316-1.517 55.962-1.067C56.792-0.477 56.708-0.406 62.684-6.341C65.722-9.378 68.169-11.741 68.112-11.586C67.648-10.391 67.592-10.123 67.662-9.434C67.789-8.183 68.661-7.016 69.856-6.509C70.194-6.355 70.686-6.312 71.361-6.341C73.287-6.425 74.539-7.677 74.623-9.603C74.651-10.278 74.609-10.77 74.455-11.108C73.948-12.303 72.781-13.175 71.53-13.302C70.841-13.372 70.573-13.316 69.378-12.852C69.223-12.795 71.586-15.242 74.623-18.28C80.558-24.256 80.487-24.172 79.897-25.002C79.447-25.648 76.451-26.787 74.131-27.195C72.641-27.462 69.491-27.448 68.014-27.181Z"/>
  </g>
 </g>
</svg>
